HIERARCHY
ROOT Hips
{
	OFFSET 0.000000 71.427986 0.000000
	CHANNELS 6 Xposition Yposition Zposition Xrotation Yrotation Zrotation
	JOINT Pelvis
	{
		OFFSET 0.000000 0.000000 0.000000
		CHANNELS 3 Xrotation Yrotation Zrotation
		JOINT LeftUpLeg
		{
			OFFSET 6.797100 -2.508499 -1.318700
			CHANNELS 3 Xrotation Yrotation Zrotation
			JOINT LeftLeg
			{
				OFFSET 0.069008 -29.241863 0.690200
				CHANNELS 3 Xrotation Yrotation Zrotation
				JOINT LeftFoot
				{
					OFFSET -0.069008 -29.568123 -0.266800
					CHANNELS 3 Xrotation Yrotation Zrotation
					JOINT LeftToeBase
					{
						OFFSET 3.145500 -8.631000 16.059900
						CHANNELS 3 Xrotation Yrotation Zrotation
						End Site
						{
							OFFSET 0.000000 18.501587 0.000000
						}
					}
				}
			}
			JOINT Left_ShortSleeve
			{
				OFFSET 0.265923 -10.480953 1.153800
				CHANNELS 3 Xrotation Yrotation Zrotation
				End Site
				{
					OFFSET 1.725763 19.823879 0.000000
				}
			}
		}
		JOINT RightUpLeg
		{
			OFFSET -6.797100 -2.508499 -1.318700
			CHANNELS 3 Xrotation Yrotation Zrotation
			JOINT RightLeg
			{
				OFFSET -0.082453 -29.241932 0.688000
				CHANNELS 3 Xrotation Yrotation Zrotation
				JOINT RightFoot
				{
					OFFSET 0.082453 -29.568058 -0.264600
					CHANNELS 3 Xrotation Yrotation Zrotation
					JOINT RightToeBase
					{
						OFFSET -3.115300 -8.682800 16.113400
						CHANNELS 3 Xrotation Yrotation Zrotation
						End Site
						{
							OFFSET 0.000000 18.567114 0.000000
						}
					}
				}
			}
			JOINT Right_ShortSleeve
			{
				OFFSET -0.265923 -10.480953 1.153800
				CHANNELS 3 Xrotation Yrotation Zrotation
				End Site
				{
					OFFSET -1.725766 19.823910 0.000000
				}
			}
		}
	}
	JOINT Spine
	{
		OFFSET 0.000000 13.368103 0.470500
		CHANNELS 3 Xrotation Yrotation Zrotation
		JOINT Spine1
		{
			OFFSET 0.147000 13.837402 0.538800
			CHANNELS 3 Xrotation Yrotation Zrotation
			JOINT Spine2
			{
				OFFSET 0.168000 16.242897 -1.435500
				CHANNELS 3 Xrotation Yrotation Zrotation
				JOINT Neck
				{
					OFFSET 0.217200 18.631500 -1.679100
					CHANNELS 3 Xrotation Yrotation Zrotation
					JOINT Head
					{
						OFFSET 0.000000 6.599396 1.385900
						CHANNELS 3 Xrotation Yrotation Zrotation
						JOINT Hat
						{
							OFFSET -0.532200 27.220596 -10.096100
							CHANNELS 3 Xrotation Yrotation Zrotation
							End Site
							{
								OFFSET 0.000000 22.029861 0.000000
							}
						}
						JOINT HairD
						{
							OFFSET -10.777400 17.437393 -1.325900
							CHANNELS 3 Xrotation Yrotation Zrotation
							JOINT HairD1
							{
								OFFSET -3.290299 -11.051193 1.062200
								CHANNELS 3 Xrotation Yrotation Zrotation
								End Site
								{
									OFFSET 0.000000 11.579437 0.000000
								}
							}
						}
						JOINT HairB
						{
							OFFSET -10.777400 17.437393 1.467900
							CHANNELS 3 Xrotation Yrotation Zrotation
							JOINT HairB1
							{
								OFFSET -1.561200 -12.956299 3.590200
								CHANNELS 3 Xrotation Yrotation Zrotation
								End Site
								{
									OFFSET 0.000000 13.534866 0.000000
								}
							}
						}
						JOINT HairA
						{
							OFFSET 9.713100 17.437393 1.467900
							CHANNELS 3 Xrotation Yrotation Zrotation
							JOINT HairA1
							{
								OFFSET 1.561200 -12.956299 3.590200
								CHANNELS 3 Xrotation Yrotation Zrotation
								End Site
								{
									OFFSET 0.000000 13.534866 0.000000
								}
							}
						}
						JOINT HairC
						{
							OFFSET 9.713100 17.437393 -1.325900
							CHANNELS 3 Xrotation Yrotation Zrotation
							JOINT HairC1
							{
								OFFSET 3.290300 -11.051193 1.062200
								CHANNELS 3 Xrotation Yrotation Zrotation
								End Site
								{
									OFFSET 0.000000 11.579437 0.000000
								}
							}
						}
					}
				}
				JOINT LeftShoulder
				{
					OFFSET 5.101800 15.108002 -2.763700
					CHANNELS 3 Xrotation Yrotation Zrotation
					JOINT LeftArm
					{
						OFFSET 9.825497 2.506317 -1.597400
						CHANNELS 3 Xrotation Yrotation Zrotation
						JOINT LeftForeArm
						{
							OFFSET 21.966244 0.000000 0.000000
							CHANNELS 3 Xrotation Yrotation Zrotation
							JOINT LeftHand
							{
								OFFSET 33.879036 0.000000 0.000000
								CHANNELS 3 Xrotation Yrotation Zrotation
								JOINT LeftHandThumb1
								{
									OFFSET 6.715286 -2.359680 3.363841
									CHANNELS 3 Xrotation Yrotation Zrotation
									JOINT LeftHandThumb2
									{
										OFFSET 2.507072 -1.447464 1.447461
										CHANNELS 3 Xrotation Yrotation Zrotation
										JOINT LeftHandThumb3
										{
											OFFSET 2.898338 -1.673355 1.673357
											CHANNELS 3 Xrotation Yrotation Zrotation
											End Site
											{
												OFFSET -0.295959 3.727692 -0.131651
											}
										}
									}
								}
								JOINT LeftHandIndex1
								{
									OFFSET 14.190811 -0.254547 3.840278
									CHANNELS 3 Xrotation Yrotation Zrotation
									JOINT LeftHandIndex2
									{
										OFFSET 3.551727 0.000000 -0.000000
										CHANNELS 3 Xrotation Yrotation Zrotation
										JOINT LeftHandIndex3
										{
											OFFSET 2.894196 0.000000 0.000000
											CHANNELS 3 Xrotation Yrotation Zrotation
											End Site
											{
												OFFSET -1.000603 2.690872 0.366626
											}
										}
									}
								}
								JOINT LeftHandMiddle1
								{
									OFFSET 13.776489 0.000000 0.000000
									CHANNELS 3 Xrotation Yrotation Zrotation
									JOINT LeftHandMiddle2
									{
										OFFSET 3.438232 0.000000 0.000000
										CHANNELS 3 Xrotation Yrotation Zrotation
										JOINT LeftHandMiddle3
										{
											OFFSET 3.691551 0.000000 0.000000
											CHANNELS 3 Xrotation Yrotation Zrotation
											End Site
											{
												OFFSET -1.082298 3.499527 0.457670
											}
										}
									}
								}
								JOINT LeftHandRing1
								{
									OFFSET 13.966164 -0.268127 -3.067488
									CHANNELS 3 Xrotation Yrotation Zrotation
									JOINT LeftHandRing2
									{
										OFFSET 3.162567 0.000000 0.000000
										CHANNELS 3 Xrotation Yrotation Zrotation
										JOINT LeftHandRing3
										{
											OFFSET 3.324348 0.000000 0.000000
											CHANNELS 3 Xrotation Yrotation Zrotation
											End Site
											{
												OFFSET -0.861900 3.184998 0.405154
											}
										}
									}
								}
								JOINT LeftHandPinky1
								{
									OFFSET 13.131393 -0.168503 -5.746925
									CHANNELS 3 Xrotation Yrotation Zrotation
									JOINT LeftHandPinky2
									{
										OFFSET 2.849182 0.000000 0.000000
										CHANNELS 3 Xrotation Yrotation Zrotation
										JOINT LeftHandPinky3
										{
											OFFSET 2.805038 0.000000 0.000000
											CHANNELS 3 Xrotation Yrotation Zrotation
											End Site
											{
												OFFSET -0.882500 2.642609 0.325652
											}
										}
									}
								}
							}
							JOINT Left_Sleeve
							{
								OFFSET 6.592125 -0.646545 0.805568
								CHANNELS 3 Xrotation Yrotation Zrotation
								End Site
								{
									OFFSET -0.000179 20.275787 -0.000000
								}
							}
						}
					}
				}
				JOINT RightShoulder
				{
					OFFSET -5.731700 15.108002 -2.763700
					CHANNELS 3 Xrotation Yrotation Zrotation
					JOINT RightArm
					{
						OFFSET -9.825497 2.506317 -1.597400
						CHANNELS 3 Xrotation Yrotation Zrotation
						JOINT RightForeArm
						{
							OFFSET -21.966242 0.000000 0.000000
							CHANNELS 3 Xrotation Yrotation Zrotation
							JOINT RightHand
							{
								OFFSET -33.879032 0.000000 0.000000
								CHANNELS 3 Xrotation Yrotation Zrotation
								JOINT RightHandThumb1
								{
									OFFSET -6.715286 -2.359680 3.363841
									CHANNELS 3 Xrotation Yrotation Zrotation
									JOINT RightHandThumb2
									{
										OFFSET -2.507072 -1.447464 1.447461
										CHANNELS 3 Xrotation Yrotation Zrotation
										JOINT RightHandThumb3
										{
											OFFSET -2.898338 -1.673355 1.673357
											CHANNELS 3 Xrotation Yrotation Zrotation
											End Site
											{
												OFFSET 0.295959 3.727692 -0.131651
											}
										}
									}
								}
								JOINT RightHandIndex1
								{
									OFFSET -14.190811 -0.254547 3.840278
									CHANNELS 3 Xrotation Yrotation Zrotation
									JOINT RightHandIndex2
									{
										OFFSET -3.551727 0.000000 -0.000000
										CHANNELS 3 Xrotation Yrotation Zrotation
										JOINT RightHandIndex3
										{
											OFFSET -2.894196 0.000000 0.000000
											CHANNELS 3 Xrotation Yrotation Zrotation
											End Site
											{
												OFFSET 1.000603 2.690872 0.366626
											}
										}
									}
								}
								JOINT RightHandMiddle1
								{
									OFFSET -13.776489 0.000000 0.000000
									CHANNELS 3 Xrotation Yrotation Zrotation
									JOINT RightHandMiddle2
									{
										OFFSET -3.438232 0.000000 0.000000
										CHANNELS 3 Xrotation Yrotation Zrotation
										JOINT RightHandMiddle3
										{
											OFFSET -3.691551 0.000000 0.000000
											CHANNELS 3 Xrotation Yrotation Zrotation
											End Site
											{
												OFFSET 1.082298 3.499527 0.457670
											}
										}
									}
								}
								JOINT RightHandRing1
								{
									OFFSET -13.966164 -0.268127 -3.067488
									CHANNELS 3 Xrotation Yrotation Zrotation
									JOINT RightHandRing2
									{
										OFFSET -3.162567 0.000000 0.000000
										CHANNELS 3 Xrotation Yrotation Zrotation
										JOINT RightHandRing3
										{
											OFFSET -3.324348 0.000000 0.000000
											CHANNELS 3 Xrotation Yrotation Zrotation
											End Site
											{
												OFFSET 0.861900 3.184998 0.405154
											}
										}
									}
								}
								JOINT RightHandPinky1
								{
									OFFSET -13.131393 -0.168503 -5.746925
									CHANNELS 3 Xrotation Yrotation Zrotation
									JOINT RightHandPinky2
									{
										OFFSET -2.849182 0.000000 0.000000
										CHANNELS 3 Xrotation Yrotation Zrotation
										JOINT RightHandPinky3
										{
											OFFSET -2.805038 0.000000 0.000000
											CHANNELS 3 Xrotation Yrotation Zrotation
											End Site
											{
												OFFSET 0.882500 2.642609 0.325652
											}
										}
									}
								}
							}
							JOINT Right_Sleeve
							{
								OFFSET -6.592125 -0.646545 0.805568
								CHANNELS 3 Xrotation Yrotation Zrotation
								End Site
								{
									OFFSET 0.000179 20.275787 -0.000000
								}
							}
						}
					}
				}
				JOINT Bind_Right_JacketString
				{
					OFFSET -3.534800 11.969597 7.200700
					CHANNELS 3 Xrotation Yrotation Zrotation
					JOINT Bind_Right_JacketString1
					{
						OFFSET -0.319900 -6.102600 2.794100
						CHANNELS 3 Xrotation Yrotation Zrotation
						End Site
						{
							OFFSET 0.000000 6.719452 0.000000
						}
					}
				}
				JOINT Bind_Left_JacketString
				{
					OFFSET 2.904800 11.969597 7.200700
					CHANNELS 3 Xrotation Yrotation Zrotation
					JOINT Bind_Left_JacketString1
					{
						OFFSET 0.364800 -5.904503 3.186800
						CHANNELS 3 Xrotation Yrotation Zrotation
						End Site
						{
							OFFSET 0.000000 6.719513 0.000000
						}
					}
				}
				JOINT HairE
				{
					OFFSET 5.915200 17.612701 -11.592200
					CHANNELS 3 Xrotation Yrotation Zrotation
					JOINT HairE1
					{
						OFFSET 0.289200 -7.171898 -1.284500
						CHANNELS 3 Xrotation Yrotation Zrotation
						End Site
						{
							OFFSET 0.000000 7.291756 0.000000
						}
					}
				}
				JOINT HairF
				{
					OFFSET -0.864800 17.612701 -11.592200
					CHANNELS 3 Xrotation Yrotation Zrotation
					JOINT HairF1
					{
						OFFSET 0.000000 -14.087097 -2.127501
						CHANNELS 3 Xrotation Yrotation Zrotation
						End Site
						{
							OFFSET 0.000000 14.246841 0.000000
						}
					}
				}
				JOINT HairG
				{
					OFFSET -8.087700 17.612701 -11.592200
					CHANNELS 3 Xrotation Yrotation Zrotation
					JOINT HairG1
					{
						OFFSET -0.293600 -6.081398 -0.910100
						CHANNELS 3 Xrotation Yrotation Zrotation
						End Site
						{
							OFFSET 0.000000 6.156120 0.000000
						}
					}
				}
			}
		}
	}
	JOINT Pouch
	{
		OFFSET 0.000000 4.394501 10.847300
		CHANNELS 3 Xrotation Yrotation Zrotation
		End Site
		{
			OFFSET 0.000000 21.880577 0.000000
		}
	}
	JOINT Bag
	{
		OFFSET -13.229000 4.813004 -0.593300
		CHANNELS 3 Xrotation Yrotation Zrotation
		End Site
		{
			OFFSET 0.000000 21.880577 0.000000
		}
	}
	JOINT OccupyGuyFacialAnim_Joint
	{
		OFFSET 1.000000 -70.206398 -1.655000
		CHANNELS 3 Xrotation Yrotation Zrotation
		End Site
		{
			OFFSET 0.000000 21.880577 0.000000
		}
	}
}
MOTION
Frames: 4
Frame Time: 0.033333
-2.216079 69.555000 -1.327841 32.978879 -93.024670 32.080763 0.000000 0.000000 0.000000 -10.677509 2.362356 4.162913 28.450601 -5.421089 -0.501452 -16.413465 -6.282222 -1.500350 0.000000 -0.000001 0.000000 -0.000001 0.000000 -0.000000 -13.213555 -2.846113 3.679178 25.776229 8.817265 0.887158 -9.280763 9.484064 -5.448196 -0.000000 -0.000001 -0.000000 0.000001 0.000000 -0.000000 3.107236 2.468241 0.819776 1.363428 0.352665 -0.060311 1.365305 0.347498 -0.053546 -0.784921 -8.955951 -3.212365 10.482046 -28.535465 6.415090 0.000000 -0.000003 0.000001 0.000000 -0.000003 0.000001 0.000000 -0.000003 0.000001 0.000000 -0.000003 0.000001 0.000001 0.000001 0.000000 0.000000 -0.000003 0.000001 0.000001 0.000001 0.000000 0.000000 -0.000003 0.000001 0.000000 -0.000003 0.000001 0.598945 -2.205701 -11.297404 13.927867 -22.083477 -58.845133 -0.000020 -24.549068 -0.000013 -7.800647 -16.056574 22.488760 15.696155 7.659609 11.558575 10.848863 14.177327 3.482150 -0.000001 0.000001 -0.000000 0.242545 2.812728 -7.580363 0.578533 3.274241 -25.422714 0.000002 -0.000000 0.000001 0.822773 8.680350 -13.852655 0.589462 3.394756 -26.565889 0.000002 -0.000000 0.000002 2.117938 12.069375 -20.172151 0.666675 2.510528 -22.835255 -0.000000 -0.000000 0.000001 0.382146 14.513071 -19.135934 0.258971 2.088908 -22.795779 0.000000 -0.000002 0.000001 0.000000 -0.000001 0.000001 0.545164 6.897073 11.126269 8.974894 -2.555196 69.539283 -0.000012 19.622005 0.000025 -20.238470 14.669957 -15.218681 8.354531 -6.024063 -12.320089 6.910973 -10.783930 -6.236103 0.000000 -0.000001 -0.000000 0.364620 3.525380 4.385925 0.267456 -2.471097 16.877008 -0.000000 -0.000001 0.000000 -0.265168 -3.235806 10.867774 0.450496 -3.079240 23.111603 -0.000001 -0.000003 0.000000 0.485136 -6.894902 15.016705 0.705790 -2.581431 23.646142 -0.000001 0.000001 -0.000001 0.615741 -9.595240 19.672854 0.265522 -2.109015 23.005797 -0.000001 0.000002 0.000001 -0.000000 -0.000000 0.000000 -0.000000 0.000000 -0.000000 0.000000 -0.000000 0.000000 -0.000000 0.000000 -0.000000 -0.000000 0.000000 -0.000000 -0.000000 0.000000 -0.000000 0.000000 -0.000000 0.000000 -0.000000 0.000000 -0.000000 -0.000000 0.000000 -0.000000 -0.000000 0.000000 -0.000000 0.000000 -0.000000 0.000000 0.000000 0.000000 0.000000 0.000000 0.000000 0.000000 0.000000 0.000000 0.000000 
-1.824398 69.516258 -0.824918 10.438495 -97.066694 10.034018 -0.000000 0.000000 -0.000000 -10.578512 4.385656 3.097320 27.996983 -5.436254 -0.349426 -16.288481 -3.170328 -0.367220 -0.000000 -0.000000 0.000000 0.000001 -0.000000 -0.000000 -14.874185 -1.672867 2.821086 26.614711 9.099977 1.117855 -8.653469 12.447563 -4.923321 0.000000 -0.000000 0.000000 0.000001 0.000001 -0.000001 3.199422 2.134663 0.300060 1.432352 0.289566 -0.148405 1.434443 0.280408 -0.141550 -0.785161 -8.973290 -3.072053 9.574994 -28.466552 6.675784 -0.000000 0.000001 -0.000000 -0.000000 0.000001 -0.000000 -0.000000 0.000001 -0.000000 -0.000000 0.000001 -0.000000 -0.000001 -0.000001 -0.000000 -0.000000 0.000001 -0.000000 -0.000001 -0.000001 -0.000000 -0.000000 0.000001 -0.000000 -0.000000 0.000001 -0.000000 0.593282 -2.698969 -10.993116 14.639664 -22.186920 -58.735529 -0.000013 -24.795368 -0.000006 -8.483409 -16.319820 22.832626 15.696154 7.659611 11.558576 10.848859 14.177321 3.482148 0.000000 0.000001 -0.000003 0.242541 2.812733 -7.580363 0.578537 3.274235 -25.422710 -0.000001 0.000002 -0.000002 0.822771 8.680351 -13.852651 0.589452 3.394761 -26.565891 -0.000000 0.000000 0.000001 2.117941 12.069379 -20.172153 0.666675 2.510525 -22.835254 -0.000003 0.000002 -0.000001 0.382147 14.513078 -19.135936 0.258970 2.088907 -22.795775 -0.000003 -0.000004 -0.000001 0.000001 0.000001 -0.000000 0.543327 6.958441 11.155457 8.984715 -3.418446 69.557041 0.000006 19.542402 0.000001 -21.464906 14.882663 -15.402819 8.354529 -6.024064 -12.320088 6.910972 -10.783930 -6.236105 0.000000 -0.000001 0.000002 0.364617 3.525376 4.385928 0.267456 -2.471095 16.877010 -0.000002 0.000001 0.000000 -0.265168 -3.235810 10.867774 0.450497 -3.079238 23.111608 -0.000001 0.000000 -0.000001 0.485134 -6.894906 15.016705 0.705790 -2.581429 23.646142 0.000000 -0.000002 -0.000003 0.615738 -9.595243 19.672857 0.265523 -2.109013 23.005795 0.000000 0.000002 0.000001 -0.000000 -0.000000 0.000000 -0.000000 0.000000 -0.000000 0.000000 -0.000000 -0.000000 -0.000000 0.000000 -0.000000 -0.000000 0.000000 -0.000000 -0.000000 0.000000 -0.000000 0.000000 -0.000000 -0.000000 -0.000000 0.000000 -0.000000 -0.000000 0.000000 -0.000000 -0.000000 0.000000 -0.000000 0.000000 -0.000000 -0.000000 -0.000000 0.000000 -0.000000 -0.000000 0.000000 -0.000000 -0.000000 0.000000 -0.000000 
-1.253553 69.393181 -0.296509 2.824383 -101.127911 2.918562 0.000000 -0.000000 -0.000000 -11.482567 5.914007 2.121462 28.222036 -5.373874 -0.227074 -16.259716 -0.373263 0.609769 -0.000000 -0.000001 -0.000000 -0.000002 0.000000 0.000000 -17.082612 -0.087393 2.284063 27.412824 9.599547 1.304514 -7.887228 14.731453 -4.714512 -0.000000 0.000000 0.000000 0.000000 -0.000001 -0.000001 3.290673 1.444612 -0.233827 1.504780 0.179283 -0.224462 1.506179 0.167728 -0.218738 -0.868673 -9.017974 -2.957312 8.152848 -28.674230 7.030384 0.000001 0.000001 -0.000000 0.000001 0.000001 -0.000000 0.000001 0.000001 0.000000 0.000001 0.000001 0.000000 0.000000 -0.000001 -0.000000 0.000001 0.000001 0.000000 0.000000 -0.000001 -0.000000 0.000001 0.000001 -0.000000 0.000001 0.000001 -0.000000 0.590286 -3.243183 -10.645880 15.509413 -22.939510 -58.147374 0.000009 -24.724373 -0.000002 -9.564257 -16.571130 22.537609 15.696154 7.659609 11.558577 10.848866 14.177325 3.482153 -0.000000 -0.000001 0.000005 0.242546 2.812731 -7.580368 0.578539 3.274238 -25.422710 0.000006 0.000003 0.000000 0.822771 8.680350 -13.852654 0.589455 3.394757 -26.565896 0.000001 -0.000001 0.000001 2.117949 12.069376 -20.172149 0.666677 2.510522 -22.835247 0.000004 0.000004 0.000001 0.382146 14.513076 -19.135936 0.258970 2.088907 -22.795773 -0.000002 0.000000 -0.000001 -0.000001 -0.000000 0.000001 0.546029 6.916325 11.075831 8.808135 -4.400280 69.918386 -0.000015 19.677027 0.000007 -23.068964 15.456925 -15.609561 8.354534 -6.024065 -12.320094 6.910974 -10.783930 -6.236101 0.000000 -0.000001 -0.000003 0.364624 3.525378 4.385930 0.267454 -2.471099 16.877006 -0.000001 -0.000001 0.000002 -0.265161 -3.235811 10.867776 0.450497 -3.079239 23.111603 0.000003 -0.000000 -0.000001 0.485140 -6.894904 15.016710 0.705787 -2.581431 23.646141 0.000000 -0.000001 -0.000000 0.615746 -9.595244 19.672857 0.265522 -2.109014 23.005795 -0.000002 0.000001 -0.000001 -0.000000 -0.000000 0.000000 -0.000000 -0.000000 -0.000000 0.000000 -0.000001 -0.000000 -0.000000 -0.000000 -0.000000 -0.000000 -0.000000 -0.000000 -0.000000 -0.000000 -0.000000 0.000000 -0.000001 -0.000000 -0.000000 -0.000000 -0.000000 -0.000000 -0.000000 -0.000000 -0.000000 -0.000000 -0.000000 0.000000 -0.000001 -0.000000 0.000000 -0.000000 -0.000000 0.000000 -0.000000 -0.000000 0.000000 -0.000000 -0.000000 
-1.253553 69.393181 -0.296509 2.824383 -101.127911 2.918562 0.000000 -0.000000 -0.000000 -11.482567 5.914007 2.121462 28.222036 -5.373874 -0.227074 -16.259716 -0.373263 0.609769 -0.000000 -0.000001 -0.000000 -0.000002 0.000000 0.000000 -17.082612 -0.087393 2.284063 27.412824 9.599547 1.304514 -7.887228 14.731453 -4.714512 -0.000000 0.000000 0.000000 0.000000 -0.000001 -0.000001 3.290673 1.444612 -0.233827 1.504780 0.179283 -0.224462 1.506179 0.167728 -0.218738 -0.868673 -9.017974 -2.957312 8.152848 -28.674230 7.030384 0.000001 0.000001 -0.000000 0.000001 0.000001 -0.000000 0.000001 0.000001 0.000000 0.000001 0.000001 0.000000 0.000000 -0.000001 -0.000000 0.000001 0.000001 0.000000 0.000000 -0.000001 -0.000000 0.000001 0.000001 -0.000000 0.000001 0.000001 -0.000000 0.590286 -3.243183 -10.645880 15.509413 -22.939510 -58.147374 0.000009 -24.724373 -0.000002 -9.564257 -16.571130 22.537609 15.696154 7.659609 11.558577 10.848866 14.177325 3.482153 -0.000000 -0.000001 0.000005 0.242546 2.812731 -7.580368 0.578539 3.274238 -25.422710 0.000006 0.000003 0.000000 0.822771 8.680350 -13.852654 0.589455 3.394757 -26.565896 0.000001 -0.000001 0.000001 2.117949 12.069376 -20.172149 0.666677 2.510522 -22.835247 0.000004 0.000004 0.000001 0.382146 14.513076 -19.135936 0.258970 2.088907 -22.795773 -0.000002 0.000000 -0.000001 -0.000001 -0.000000 0.000001 0.546029 6.916325 11.075831 8.808135 -4.400280 69.918386 -0.000015 19.677027 0.000007 -23.068964 15.456925 -15.609561 8.354534 -6.024065 -12.320094 6.910974 -10.783930 -6.236101 0.000000 -0.000001 -0.000003 0.364624 3.525378 4.385930 0.267454 -2.471099 16.877006 -0.000001 -0.000001 0.000002 -0.265161 -3.235811 10.867776 0.450497 -3.079239 23.111603 0.000003 -0.000000 -0.000001 0.485140 -6.894904 15.016710 0.705787 -2.581431 23.646141 0.000000 -0.000001 -0.000000 0.615746 -9.595244 19.672857 0.265522 -2.109014 23.005795 -0.000002 0.000001 -0.000001 -0.000000 -0.000000 0.000000 -0.000000 -0.000000 -0.000000 0.000000 -0.000001 -0.000000 -0.000000 -0.000000 -0.000000 -0.000000 -0.000000 -0.000000 -0.000000 -0.000000 -0.000000 0.000000 -0.000001 -0.000000 -0.000000 -0.000000 -0.000000 -0.000000 -0.000000 -0.000000 -0.000000 -0.000000 -0.000000 0.000000 -0.000001 -0.000000 0.000000 -0.000000 -0.000000 0.000000 -0.000000 -0.000000 0.000000 -0.000000 -0.000000 
